<svg width="38" height="43" fill="none" xmlns="http://www.w3.org/2000/svg"><path fill-rule="evenodd" clip-rule="evenodd" d="M16.477 1.004c-4.732.577-9.22 2.95-12.132 6.413-.862 1.027-.98 1.594-.43 2.096.495.453 1.075.38 1.615-.202 2.25-2.43 3.508-3.445 5.499-4.44 2.654-1.326 4.524-1.761 7.56-1.761 1.54 0 2.426.066 3.27.244 6.356 1.338 11.192 5.964 12.702 12.15.232.948.29 1.778.362 5.218l.087 4.09.322.254c.454.358 1.05.323 1.47-.085l.347-.338-.063-4.072c-.054-3.449-.106-4.255-.339-5.266C35.012 7.78 28.993 2.242 21.315 1.107c-1.173-.173-3.803-.23-4.838-.103Zm0 4.3c-4.355.606-8.46 3.493-10.484 7.375-1.334 2.56-1.575 3.988-1.576 9.351 0 2.483-.06 4.346-.152 4.775-.237 1.095-.761 2.043-1.63 2.947-.905.942-1.132 1.385-.949 1.854.16.408.651.743 1.09.743.565 0 2.183-1.74 2.859-3.076.872-1.72.957-2.351.96-7.086.002-3.089.054-4.419.21-5.284.87-4.864 4.947-8.732 10.013-9.5 1.239-.189 3.562-.082 4.688.215a21.01 21.01 0 0 1 1.803.598c1.1.426 1.477.393 1.876-.16.443-.615.152-1.29-.71-1.652-2.57-1.077-5.38-1.463-7.998-1.1Zm.686 3.576a9.825 9.825 0 0 0-5.453 2.709c-1.247 1.214-1.964 2.324-2.484 3.849-.34.995-.365 1.247-.418 4.072l-.056 3.011.347.338c.456.443 1.076.448 1.524.012.332-.322.335-.348.335-2.823 0-2.774.122-3.491.843-4.942.284-.57.755-1.18 1.394-1.805 1.529-1.493 3.257-2.203 5.384-2.21 3.86-.014 7.1 2.773 7.59 6.529.164 1.258 1.129 1.756 1.916.99.335-.327.348-.393.263-1.29-.108-1.13-.695-2.856-1.328-3.905-.252-.418-.96-1.248-1.572-1.845-1.734-1.688-3.852-2.605-6.35-2.749-.617-.035-1.488-.009-1.935.059ZM27.36 8.87c-.376.148-.73.642-.73 1.018 0 .166.305.63.7 1.065 1.649 1.81 2.666 3.817 3.059 6.033.183 1.037.208 2.067.156 6.474-.065 5.447-.151 6.446-.791 9.125-.33 1.385-.33 1.688.01 2.018.363.353 1.233.36 1.556.011.313-.336.69-1.778 1.06-4.057.277-1.71.301-2.325.306-7.825.005-5.745-.006-6.007-.293-6.99-.678-2.327-1.657-4.173-3.044-5.745-.606-.686-1.407-1.293-1.65-1.25-.026.005-.179.06-.34.123Zm-25.35 2.72c-.331.136-.486.332-.695.884C.27 15.235.176 15.852.096 20.57l-.069 4.07.349.34c.42.409 1.016.444 1.47.086l.322-.253.087-4.09c.093-4.382.19-5.098.983-7.271.29-.797.314-.98.171-1.32-.226-.54-.83-.774-1.399-.54Zm15.3 2.195c-.862.211-2.089.918-2.685 1.547-.306.323-.75.987-.987 1.474l-.432.886-.08 5.106c-.08 4.954-.092 5.146-.437 6.404a15.106 15.106 0 0 1-3.366 6.13c-.902.995-1.039 1.496-.563 2.068.438.527 1.125.423 1.863-.283 1.511-1.443 3.1-4.08 3.868-6.416.7-2.131.826-3.348.827-8.02 0-2.878.052-4.331.166-4.708.346-1.14 1.845-2.204 3.105-2.204s2.76 1.064 3.105 2.204c.115.377.166 1.822.166 4.68v4.136l.335.326c.445.434 1.068.43 1.519-.008l.343-.333-.043-4.549-.042-4.548-.509-1.002c-.92-1.813-2.557-2.877-4.567-2.97-.581-.027-1.294.01-1.585.08Zm.579 4.36-.322.252-.077 4.754c-.069 4.21-.112 4.908-.376 6.105-.412 1.868-.995 3.424-1.949 5.203-.64 1.195-.794 1.593-.727 1.89.19.845 1.297 1.053 1.898.357.503-.582 1.756-3.13 2.24-4.557.91-2.678.995-3.377 1.066-8.713l.065-4.867-.348-.34c-.42-.408-1.016-.443-1.47-.085Zm8.684 3.237c-.311.303-.318.37-.39 3.747-.078 3.718-.225 4.894-.93 7.482a27.63 27.63 0 0 1-3.067 7.05c-.254.41-.462.922-.462 1.137 0 .734.922 1.206 1.633.835.608-.316 2.578-4.174 3.487-6.83 1.13-3.299 1.557-6.164 1.557-10.433 0-2.631-.002-2.647-.334-2.97-.435-.424-1.07-.43-1.494-.018ZM9.12 25.618c-.284.239-.381.484-.487 1.227-.34 2.39-1.2 4.062-3.18 6.185-.773.83-1.448 1.639-1.5 1.8-.112.34.21 1.028.538 1.15.683.256.95.106 2.412-1.354 1.467-1.463 2.05-2.232 2.809-3.697.547-1.057 1.063-2.795 1.184-3.988.09-.89.077-.956-.256-1.28-.44-.43-1.042-.446-1.52-.043Zm12.615 4.178c-.2.159-.398.641-.63 1.533-.779 3-2.194 5.813-4.231 8.412-.936 1.193-1.067 1.636-.635 2.143.13.153.44.317.688.364.409.077.51.024 1.098-.57 2.032-2.051 4.448-6.66 5.273-10.058.268-1.102.247-1.356-.137-1.73-.398-.387-1.008-.428-1.426-.094Zm7.174 6.3c-.314.23-.644 1.06-.644 1.62 0 .588.396 1 .963 1 .655 0 .903-.208 1.214-1.017.243-.633.264-.814.128-1.133-.09-.21-.272-.438-.407-.508-.343-.179-.986-.16-1.254.038Zm-16.61 2.333c-.923.898-1.04 1.388-.461 1.95.535.521 1.053.438 1.863-.3.378-.344.775-.791.883-.993.387-.728-.115-1.432-1.02-1.432-.39 0-.604.131-1.265.775Z" fill="#fff"/></svg>