<svg width="20" height="16" fill="none" xmlns="http://www.w3.org/2000/svg"><path fill-rule="evenodd" clip-rule="evenodd" d="M1.43.066C.436.306-.191 1.322.06 2.287c.077.295.22.558.417.762.175.183 8.495 5.746 8.8 5.884.464.211 1.017.203 1.49-.02.372-.177 8.523-5.631 8.73-5.843.973-.994.442-2.679-.947-3.006-.366-.086-16.763-.085-17.12.002ZM0 8.767c0 3.164.013 4.615.043 4.759.143.688.7 1.25 1.406 1.416.368.087 16.667.09 17.076.003.71-.15 1.285-.72 1.43-1.419.05-.238.063-9.32.014-9.297-.016.007-1.905 1.264-4.197 2.794-2.293 1.53-4.294 2.845-4.448 2.923-.432.217-.798.3-1.325.3-.527 0-.893-.083-1.325-.3-.153-.078-2.155-1.393-4.447-2.923C1.934 5.493.045 4.236.029 4.23.013 4.22 0 6.264 0 8.767Z" fill="#5D8FF1"/></svg>