<svg width="45" height="45" fill="none" xmlns="http://www.w3.org/2000/svg"><circle cx="22.5" cy="22.5" r="22.5" fill="#F1F3F8"/><path fill-rule="evenodd" clip-rule="evenodd" d="M15.128 19.626a1.026 1.026 0 0 1 1.244-.532c.184.055.317.144.504.338.14.146 1.453 1.664 2.918 3.374 1.464 1.71 2.678 3.108 2.697 3.107.018-.002 1.216-1.386 2.66-3.077 3.316-3.88 3.145-3.693 3.468-3.79.905-.268 1.697.671 1.255 1.49-.159.295-6.555 7.737-6.796 7.908-.446.316-.979.252-1.387-.167-.128-.131-1.66-1.906-3.404-3.943-2.38-2.779-3.187-3.753-3.232-3.902-.09-.303-.071-.516.073-.806Z" fill="#5D8FF1"/></svg>