<svg width="20" height="24" fill="none" xmlns="http://www.w3.org/2000/svg"><path fill-rule="evenodd" clip-rule="evenodd" d="M9.23.024 8.654.09c-.957.11-2.24.507-3.171.979-1.938.983-3.576 2.64-4.492 4.542C-.67 9.059-.22 13.084 2.163 16.1c.142.18 1.885 1.944 3.873 3.92 3.21 3.19 3.633 3.595 3.788 3.622.441.079.21.281 4.139-3.622 1.987-1.976 3.73-3.74 3.872-3.92 2.845-3.603 2.89-8.561.11-12.2-.367-.482-1.062-1.196-1.59-1.634C14.589.797 12.239-.029 9.914.001c-.299.004-.606.014-.682.023Zm1.909 5.61c.798.214 1.48.616 2.054 1.212.596.618.919 1.184 1.145 2.005.133.487.147 1.588.025 2.07-.334 1.322-1.178 2.375-2.382 2.976-.65.324-1.17.442-1.959.446-.804.003-1.273-.1-1.957-.43a4.16 4.16 0 0 1-1.347-.983 4.556 4.556 0 0 1-1.083-2.009c-.121-.482-.108-1.583.026-2.07.472-1.717 1.789-2.947 3.523-3.29.475-.093 1.475-.056 1.955.073Z" fill="#5D8FF1"/></svg>