<svg width="20" height="21" fill="none" xmlns="http://www.w3.org/2000/svg"><path fill-rule="evenodd" clip-rule="evenodd" d="M7.525.017a8.426 8.426 0 0 0-7.4 6.77c-.167.84-.167 2.265 0 3.105a8.396 8.396 0 0 0 2.294 4.33c1.2 1.2 2.623 1.96 4.349 2.323.805.17 2.29.172 3.119.004.936-.189 1.937-.565 2.646-.996a3.28 3.28 0 0 1 .387-.216c.018 0 1.032.995 2.254 2.211 2.522 2.512 2.458 2.463 3.186 2.459.524-.003.838-.127 1.177-.465.34-.34.463-.652.463-1.176 0-.734.052-.666-2.47-3.199-2.144-2.154-2.22-2.237-2.15-2.35a8.715 8.715 0 0 0 1.165-2.935c.166-.824.165-2.254-.003-3.095C15.87 3.407 13.29.814 9.927.14 9.415.038 8.005-.035 7.525.017Zm1.697 2.55a5.766 5.766 0 0 1 3.237 1.648 5.812 5.812 0 0 1 0 8.25c-1.737 1.736-4.375 2.21-6.558 1.18-1.818-.86-3.046-2.484-3.34-4.417A5.827 5.827 0 0 1 5.663 3.15a5.738 5.738 0 0 1 3.559-.584Z" fill="#5D8FF1"/></svg>