<svg width="20" height="15" fill="none" xmlns="http://www.w3.org/2000/svg"><path fill-rule="evenodd" clip-rule="evenodd" d="M17.91.019c-.043.019-2.442 2.456-5.332 5.415l-5.253 5.382-2.599-2.66C2.275 5.649 2.12 5.499 1.99 5.499c-.127 0-.205.07-1.063.951C.138 7.26 0 7.42 0 7.52c0 .102.453.581 3.545 3.749 1.95 1.998 3.595 3.66 3.656 3.693.088.047.134.05.217.015.058-.024 2.912-2.918 6.343-6.431C19.228 2.948 20 2.143 20 2.04c0-.1-.137-.257-.928-1.066-.51-.521-.963-.957-1.006-.968a.28.28 0 0 0-.156.013Z" fill="#5D8FF1"/></svg>