<svg width="19" height="14" fill="none" xmlns="http://www.w3.org/2000/svg"><path fill-rule="evenodd" clip-rule="evenodd" d="M16.357.017c-.04.017-2.23 2.243-4.87 4.946L6.69 9.878 4.316 7.449c-2.239-2.29-2.38-2.428-2.498-2.428-.116 0-.188.064-.972.869-.72.74-.846.885-.846.976 0 .094.414.532 3.237 3.425 1.781 1.824 3.284 3.342 3.34 3.372.08.043.122.047.197.015.053-.023 2.66-2.666 5.794-5.874 4.992-5.112 5.697-5.847 5.697-5.941 0-.092-.124-.235-.847-.973-.466-.476-.88-.874-.919-.885a.256.256 0 0 0-.142.012Z" fill="#88DB73"/></svg>