<svg width="15" height="16" fill="none" xmlns="http://www.w3.org/2000/svg"><path fill-rule="evenodd" clip-rule="evenodd" d="M7.745.018c0 .016-.033.256-.074.534-.04.277-.073.527-.073.556 0 .042.043.059.227.088.901.143 1.981.569 2.764 1.088.482.319.787.566 1.186.96a7.286 7.286 0 0 1 2.027 3.689c.055.252.072.292.12.288a15.9 15.9 0 0 0 1.075-.183c.011-.01-.011-.163-.05-.342a8.593 8.593 0 0 0-4.596-5.89A8.193 8.193 0 0 0 8.155.069a9.12 9.12 0 0 1-.344-.064c-.037-.009-.066-.003-.066.014ZM2.298 1.46c-.282.059-.411.16-1.165.906-.401.397-.774.79-.828.875-.527.81-.37 2.154.465 3.962.933 2.025 2.613 4.068 4.54 5.522 1.134.856 2.487 1.594 3.608 1.968.927.31 1.798.397 2.353.236.415-.12.508-.19 1.335-1.013.696-.693.777-.784.863-.968a.787.787 0 0 0 .096-.428.79.79 0 0 0-.095-.427c-.088-.188-.175-.283-1.157-1.263-.866-.863-1.092-1.073-1.224-1.136-.222-.106-.432-.142-.623-.106-.316.06-.434.147-1.17.871-.38.376-.715.683-.743.683-.07 0-.762-.357-1.029-.53-1.036-.677-2.214-1.824-2.967-2.89-.26-.367-.38-.57-.554-.929-.107-.222-.133-.303-.117-.366.013-.053.259-.322.692-.758.6-.604.68-.697.761-.875.154-.34.122-.663-.1-.995-.056-.084-.555-.604-1.108-1.156-.904-.9-1.026-1.012-1.198-1.091a1.068 1.068 0 0 0-.635-.092Zm5.291 1.61c-.04.213-.147 1.06-.135 1.072.007.008.119.036.248.062a4.001 4.001 0 0 1 3.065 2.988c.03.127.06.234.064.238a16.45 16.45 0 0 0 1.125-.197c.018-.018-.032-.266-.108-.536a5.193 5.193 0 0 0-4.02-3.661l-.224-.042-.015.076Z" fill="#fff"/></svg>