<svg width="20" height="21" fill="none" xmlns="http://www.w3.org/2000/svg"><path fill-rule="evenodd" clip-rule="evenodd" d="M3.768.13C3.033.552.783 3.15.142 4.315c-.151.276-.157.303-.128.588.097.955.521 2.327 1.107 3.58.646 1.381 1.739 3.034 2.982 4.51.634.753 2.12 2.243 2.858 2.865 2.671 2.253 5.362 3.662 7.787 4.078.218.037.457.068.532.068.256 0 .962-.454 2.028-1.304 1.376-1.098 2.459-2.17 2.644-2.618.149-.358-.143-.696-1.21-1.403-1.55-1.026-2.992-1.837-3.674-2.066-.32-.107-.344-.11-.504-.043-.215.09-.357.227-.973.937-.276.32-.592.667-.702.773l-.2.193-.285-.074c-.93-.24-2.187-.897-3.23-1.688-.462-.35-1.24-1.102-1.67-1.615-.81-.968-1.578-2.364-1.886-3.43l-.1-.348.241-.248c.133-.136.463-.435.733-.664.623-.527.85-.76.935-.968.064-.152.062-.186-.022-.457-.25-.81-2.078-3.89-2.739-4.613-.367-.402-.536-.448-.898-.24Zm6.944.584v.715h.212c.93.002 2.165.302 3.124.76 1.639.78 2.876 1.991 3.675 3.594.5 1.004.712 1.76.813 2.891l.054.614H20v-.196c0-.343-.087-1.105-.184-1.612-.264-1.381-1-2.956-1.876-4.015-1.6-1.936-3.744-3.112-6.193-3.399a9.81 9.81 0 0 0-.8-.066h-.235v.714Zm0 3.56v.714l.353.03c1.041.087 1.946.52 2.706 1.297a4.15 4.15 0 0 1 1.211 2.627l.03.346h1.416v-.184c0-.616-.274-1.707-.584-2.324-.545-1.086-1.511-2.064-2.564-2.594a5.81 5.81 0 0 0-2.161-.596l-.407-.03v.714Z" fill="#5D8FF1"/></svg>