<svg width="52" height="37" fill="none" xmlns="http://www.w3.org/2000/svg"><g filter="url('#filter0_f_49_473')"><rect x="5.333" y="6.667" width="41.333" height="25.333" rx="12.667" fill="url('#paint0_linear_49_473')"/></g><rect x="2.667" y="1.333" width="46.667" height="30.667" rx="15.333" fill="url('#paint1_linear_49_473')"/><rect x="2.667" width="46.667" height="30.667" rx="15.333" fill="url('#paint2_linear_49_473')"/><path d="m33.954 9.66-2.415 11.83c-.182.835-.657 1.042-1.332.649l-3.678-2.817-1.775 1.774c-.197.204-.361.375-.74.375l.265-3.893 6.817-6.401c.297-.275-.064-.427-.46-.152l-8.429 5.514-3.628-1.18c-.79-.256-.804-.82.164-1.213l14.193-5.682c.657-.256 1.232.152 1.018 1.195Z" fill="#fff"/><defs><linearGradient id="paint0_linear_49_473" x1="6.514" y1="32" x2="48.834" y2="8.087" gradientUnits="userSpaceOnUse"><stop stop-color="#64A5F1"/><stop offset="1" stop-color="#569AEA"/></linearGradient><linearGradient id="paint1_linear_49_473" x1="4" y1="32" x2="53.333" y2="6" gradientUnits="userSpaceOnUse"><stop stop-color="#6197D6"/><stop offset="1" stop-color="#4A84C8"/></linearGradient><linearGradient id="paint2_linear_49_473" x1="4" y1="30.667" x2="53.333" y2="4.667" gradientUnits="userSpaceOnUse"><stop stop-color="#64A5F1"/><stop offset="1" stop-color="#569AEA"/></linearGradient><filter id="filter0_f_49_473" x=".333" y="1.667" width="51.333" height="35.333" filterUnits="userSpaceOnUse" color-interpolation-filters="sRGB"><feFlood flood-opacity="0" result="BackgroundImageFix"/><feBlend in="SourceGraphic" in2="BackgroundImageFix" result="shape"/><feGaussianBlur stdDeviation="2.5" result="effect1_foregroundBlur_49_473"/></filter></defs></svg>