<svg width="52" height="37" fill="none" xmlns="http://www.w3.org/2000/svg"><g filter="url('#filter0_f_49_473')"><rect x="5.333" y="6.667" width="41.333" height="25.333" rx="12.667" fill="url('#paint0_linear_49_473')"/></g><rect x="2.667" y="1.333" width="46.667" height="30.667" rx="15.333" fill="url('#paint1_linear_49_473')"/><rect x="2.667" width="46.667" height="30.667" rx="15.333" fill="url('#paint2_linear_49_473')"/><mask id="mask0_49_473" style="mask-type:alpha" maskUnits="userSpaceOnUse" x="17" y="9" width="18" height="13"><path d="m33.497 9.414-15.354 5.023c-1.048.357-1.042.853-.193 1.074l3.942 1.043 9.121-4.881c.431-.223.825-.103.501.14l-7.39 5.658-.271 3.448c.398 0 .574-.155.798-.338L26.565 19l3.983 2.496c.734.343 1.262.167 1.445-.577l2.614-10.452c.267-.91-.41-1.323-1.11-1.054Z" fill="#64A5F1"/></mask><g mask="url('#mask0_49_473')"><path fill="#fff" d="M16 5.337h30.667v26.667H16z"/></g><defs><linearGradient id="paint0_linear_49_473" x1="6.514" y1="32" x2="48.834" y2="8.087" gradientUnits="userSpaceOnUse"><stop stop-color="#64A5F1"/><stop offset="1" stop-color="#569AEA"/></linearGradient><linearGradient id="paint1_linear_49_473" x1="4" y1="32" x2="53.333" y2="6" gradientUnits="userSpaceOnUse"><stop stop-color="#6197D6"/><stop offset="1" stop-color="#4A84C8"/></linearGradient><linearGradient id="paint2_linear_49_473" x1="4" y1="30.667" x2="53.333" y2="4.667" gradientUnits="userSpaceOnUse"><stop stop-color="#64A5F1"/><stop offset="1" stop-color="#569AEA"/></linearGradient><filter id="filter0_f_49_473" x=".333" y="1.667" width="51.333" height="35.333" filterUnits="userSpaceOnUse" color-interpolation-filters="sRGB"><feFlood flood-opacity="0" result="BackgroundImageFix"/><feBlend in="SourceGraphic" in2="BackgroundImageFix" result="shape"/><feGaussianBlur stdDeviation="2.5" result="effect1_foregroundBlur_49_473"/></filter></defs></svg>