<svg width="52" height="37" fill="none" xmlns="http://www.w3.org/2000/svg"><g filter="url('#filter0_f_49_459')"><rect x="5.667" y="6.667" width="41.333" height="25.333" rx="12.667" fill="url('#paint0_linear_49_459')"/><rect x="6.167" y="7.167" width="40.333" height="24.333" rx="12.167" stroke="url('#paint1_linear_49_459')"/></g><rect x="3" y="1.333" width="46.667" height="30.667" rx="15.333" fill="url('#paint2_linear_49_459')"/><rect x="3" width="46.667" height="30.667" rx="15.333" fill="url('#paint3_linear_49_459')"/><path d="M34.592 10.338a6.453 6.453 0 0 1-.817 1.694l.014-.022c-.336.56-.738 1.207-1.204 1.94-.4.58-.612.88-.635.9a.96.96 0 0 0-.2.464l-.001.006c.02.159.094.297.2.4l.3.335c1.606 1.65 2.508 2.787 2.709 3.411a.668.668 0 0 1-.084.622l.002-.002a.723.723 0 0 1-.588.217h.003-1.978a1.06 1.06 0 0 1-.667-.236l.002.002a5.2 5.2 0 0 1-.713-.711l-.007-.01c-.345-.39-.652-.719-.92-.986-.89-.847-1.548-1.27-1.972-1.27a.59.59 0 0 0-.387.101l.002-.001a.575.575 0 0 0-.12.438v-.003a9.42 9.42 0 0 0-.028 1.052v-.013.87a.585.585 0 0 1-.2.568 2.384 2.384 0 0 1-1.213.2h.01a6.242 6.242 0 0 1-3.207-.95l.027.015a8.948 8.948 0 0 1-2.788-2.644l-.02-.031a19.77 19.77 0 0 1-1.853-2.994l-.053-.116a18.502 18.502 0 0 1-.925-2.101l-.045-.14a4.982 4.982 0 0 1-.232-1.15l-.002-.02c0-.378.223-.568.67-.568h1.972a.794.794 0 0 1 .554.169l-.002-.001c.15.164.261.366.316.59l.003.01a19.068 19.068 0 0 0 1.19 2.71l-.05-.102c.361.728.76 1.354 1.217 1.932l-.017-.023c.4.49.712.736.936.736a.3.3 0 0 0 .284-.15 1.337 1.337 0 0 0 .084-.59v.004-2.91a2.41 2.41 0 0 0-.24-.95l.006.015a2.22 2.22 0 0 0-.338-.522l.003.003a.823.823 0 0 1-.234-.464v-.004a.41.41 0 0 1 .15-.318.509.509 0 0 1 .345-.134H26.967a.475.475 0 0 1 .42.167 1.021 1.021 0 0 1 .119.573v-.004 3.88a.746.746 0 0 0 .102.438l-.002-.003a.301.301 0 0 0 .25.133h.001a.71.71 0 0 0 .353-.121l-.002.001c.204-.14.38-.3.532-.48l.003-.004c.455-.515.875-1.083 1.241-1.688l.03-.052c.257-.428.536-.954.789-1.495l.046-.11.335-.67a.842.842 0 0 1 .838-.569h-.002 1.973c.533 0 .733.246.6.736h-.001Z" fill="#fff"/><defs><linearGradient id="paint0_linear_49_459" x1="6.848" y1="32" x2="49.167" y2="8.087" gradientUnits="userSpaceOnUse"><stop stop-color="#096DDE"/><stop offset="1" stop-color="#51A0FB"/></linearGradient><linearGradient id="paint1_linear_49_459" x1="6.848" y1="32" x2="49.167" y2="8.087" gradientUnits="userSpaceOnUse"><stop stop-color="#53A3FF"/><stop offset="1" stop-color="#2787F5"/></linearGradient><linearGradient id="paint2_linear_49_459" x1="4.333" y1="32" x2="53.667" y2="6" gradientUnits="userSpaceOnUse"><stop stop-color="#4D95E9"/><stop offset="1" stop-color="#1B75DC"/></linearGradient><linearGradient id="paint3_linear_49_459" x1="4.333" y1="30.667" x2="53.667" y2="4.667" gradientUnits="userSpaceOnUse"><stop stop-color="#53A3FF"/><stop offset="1" stop-color="#2787F5"/></linearGradient><filter id="filter0_f_49_459" x=".667" y="1.667" width="51.333" height="35.333" filterUnits="userSpaceOnUse" color-interpolation-filters="sRGB"><feFlood flood-opacity="0" result="BackgroundImageFix"/><feBlend in="SourceGraphic" in2="BackgroundImageFix" result="shape"/><feGaussianBlur stdDeviation="2.5" result="effect1_foregroundBlur_49_459"/></filter></defs></svg>