<svg width="52" height="37" fill="none" xmlns="http://www.w3.org/2000/svg"><g filter="url('#filter0_f_49_466')"><rect x="5" y="6.667" width="41.333" height="25.333" rx="12.667" fill="url('#paint0_linear_49_466')"/></g><rect x="2.333" y="1.333" width="46.667" height="30.667" rx="15.333" fill="url('#paint1_linear_49_466')"/><rect x="2.333" width="46.667" height="30.667" rx="15.333" fill="url('#paint2_linear_49_466')"/><g clip-path="url('#clip0_49_466')" fill="#fff"><path d="M30.685 17.907c-.588-.58-1.322-.58-1.907 0-.445.442-.891.884-1.33 1.334-.12.123-.22.15-.367.067-.288-.157-.595-.285-.872-.457-1.293-.813-2.375-1.858-3.334-3.034-.476-.584-.899-1.21-1.195-1.914-.06-.142-.048-.236.068-.352.445-.43.88-.873 1.318-1.315.61-.614.61-1.333-.003-1.951-.349-.352-.697-.697-1.046-1.049-.36-.36-.715-.723-1.078-1.079-.588-.573-1.323-.573-1.907.004-.45.442-.88.895-1.337 1.33-.423.4-.637.891-.682 1.464-.07.933.158 1.813.48 2.671.659 1.775 1.663 3.352 2.88 4.798a17.823 17.823 0 0 0 5.903 4.619c1.034.501 2.105.887 3.27.95.802.046 1.498-.156 2.056-.782.383-.427.813-.816 1.218-1.225.6-.607.603-1.34.007-1.94a583.828 583.828 0 0 0-2.142-2.139ZM29.97 14.922l1.382-.236a6.177 6.177 0 0 0-1.727-3.334 6.144 6.144 0 0 0-3.521-1.756l-.195 1.39a4.767 4.767 0 0 1 2.727 1.359 4.767 4.767 0 0 1 1.333 2.577ZM32.13 8.914A10.191 10.191 0 0 0 26.288 6l-.194 1.39a8.837 8.837 0 0 1 5.049 2.517 8.83 8.83 0 0 1 2.476 4.775L35 14.446a10.266 10.266 0 0 0-2.87-5.532Z"/></g><defs><linearGradient id="paint0_linear_49_466" x1="6.181" y1="32" x2="48.5" y2="8.087" gradientUnits="userSpaceOnUse"><stop stop-color="#50B069"/><stop offset="1" stop-color="#91DAA8"/></linearGradient><linearGradient id="paint1_linear_49_466" x1="3.667" y1="32" x2="53" y2="6" gradientUnits="userSpaceOnUse"><stop stop-color="#50B069"/><stop offset="1" stop-color="#91DAA8"/></linearGradient><linearGradient id="paint2_linear_49_466" x1="3.667" y1="30.667" x2="53" y2="4.667" gradientUnits="userSpaceOnUse"><stop stop-color="#54C772"/><stop offset="1" stop-color="#A4F2BC"/></linearGradient><clipPath id="clip0_49_466"><path fill="#fff" transform="translate(17 6)" d="M0 0h18v18H0z"/></clipPath><filter id="filter0_f_49_466" x="0" y="1.667" width="51.333" height="35.333" filterUnits="userSpaceOnUse" color-interpolation-filters="sRGB"><feFlood flood-opacity="0" result="BackgroundImageFix"/><feBlend in="SourceGraphic" in2="BackgroundImageFix" result="shape"/><feGaussianBlur stdDeviation="2.5" result="effect1_foregroundBlur_49_466"/></filter></defs></svg>