<svg width="52" height="37" fill="none" xmlns="http://www.w3.org/2000/svg"><g filter="url('#filter0_f_49_466')"><rect x="5" y="6.667" width="41.333" height="25.333" rx="12.667" fill="url('#paint0_linear_49_466')"/></g><rect x="2.333" y="1.333" width="46.667" height="30.667" rx="15.333" fill="url('#paint1_linear_49_466')"/><rect x="2.333" width="46.667" height="30.667" rx="15.333" fill="url('#paint2_linear_49_466')"/><mask id="mask0_49_466" style="mask-type:alpha" maskUnits="userSpaceOnUse" x="17" y="8" width="18" height="15"><path d="M31.993 14.155c.021-2.068-2.116-3.964-4.764-4.226a3.853 3.853 0 0 1-.171-.022 2.987 2.987 0 0 0-.404-.036c-.543 0-.688.315-.726.502a.5.5 0 0 0 .105.455c.18.201.496.237.75.266.074.008.145.016.204.027 2.38.438 3.18 1.127 3.572 3.071.01.047.014.106.019.168.017.233.052.716.683.716.052 0 .11-.003.168-.01.587-.074.569-.516.56-.729-.003-.06-.005-.116.002-.154a.16.16 0 0 0 .001-.029l.001.001Z" fill="#665CAC"/><path d="M26.5 9.17c.071.004.137.009.192.015 3.908.496 5.706 2.02 6.203 5.266.009.055.01.122.011.193.005.254.016.782.703.793h.021c.216 0 .387-.054.51-.16.214-.184.2-.457.187-.678-.003-.054-.005-.105-.005-.15.05-3.318-3.437-6.328-7.46-6.44-.018 0-.033 0-.049.002a.406.406 0 0 1-.048.003c-.04 0-.089-.003-.142-.006-.062-.004-.135-.008-.208-.008-.64 0-.762.375-.778.6-.035.516.571.553.863.57Zm6.207 9.475a12.908 12.908 0 0 1-.25-.16c-.426-.283-.88-.543-1.319-.796l-.273-.157c-.562-.325-1.067-.483-1.545-.483-.644 0-1.204.293-1.668.87-.204.256-.454.38-.76.38a1.774 1.774 0 0 1-.613-.126c-1.813-.678-3.11-1.718-3.851-3.09-.359-.664-.242-1.097.388-1.45.358-.2 1.024-.573.978-1.288-.054-.81-2.224-3.25-3.14-3.526a2.141 2.141 0 0 0-1.21-.003c-1.052.291-1.805.803-2.182 1.479-.365.653-.348 1.42.046 2.219a18.047 18.047 0 0 0 4.768 5.98c1.98 1.626 4.413 2.957 7.232 3.957.255.09.52.14.716.176l.165.032a.338.338 0 0 0 .07.008h.023c1.326 0 2.918-.999 3.407-2.136.429-.997-.354-1.49-.982-1.886Zm-5.62-6.838c-.227.004-.7.014-.866.41-.078.186-.068.346.028.479.14.193.41.253.655.286.89.117 1.347.522 1.438 1.275.043.35.33.595.697.595a.829.829 0 0 0 .083-.004c.443-.043.657-.311.638-.796.007-.507-.314-1.082-.862-1.54-.548-.459-1.21-.718-1.811-.705Z" fill="#665CAC"/></mask><g mask="url('#mask0_49_466')"><path fill="#fff" d="M10.333 1.333H41V28H10.333z"/></g><defs><linearGradient id="paint0_linear_49_466" x1="6.181" y1="32" x2="48.5" y2="8.087" gradientUnits="userSpaceOnUse"><stop stop-color="#50B069"/><stop offset="1" stop-color="#91DAA8"/></linearGradient><linearGradient id="paint1_linear_49_466" x1="3.667" y1="32" x2="53" y2="6" gradientUnits="userSpaceOnUse"><stop stop-color="#50B069"/><stop offset="1" stop-color="#91DAA8"/></linearGradient><linearGradient id="paint2_linear_49_466" x1="3.667" y1="30.667" x2="53" y2="4.667" gradientUnits="userSpaceOnUse"><stop stop-color="#54C772"/><stop offset="1" stop-color="#A4F2BC"/></linearGradient><filter id="filter0_f_49_466" x="0" y="1.667" width="51.333" height="35.333" filterUnits="userSpaceOnUse" color-interpolation-filters="sRGB"><feFlood flood-opacity="0" result="BackgroundImageFix"/><feBlend in="SourceGraphic" in2="BackgroundImageFix" result="shape"/><feGaussianBlur stdDeviation="2.5" result="effect1_foregroundBlur_49_466"/></filter></defs></svg>