<svg width="52" height="37" viewBox="0 0 52 37" fill="none" xmlns="http://www.w3.org/2000/svg">
<g filter="url(#filter0_f_49_473)">
<rect x="5.33333" y="6.66675" width="41.3333" height="25.3333" rx="12.6667" fill="url(#paint0_linear_49_473)"/>
</g>
<rect x="2.66667" y="1.33325" width="46.6667" height="30.6667" rx="15.3333" fill="url(#paint1_linear_49_473)"/>
<rect x="2.66667" width="46.6667" height="30.6667" rx="15.3333" fill="url(#paint2_linear_49_473)"/>
<path d="M33.9536 9.65906L31.5393 21.4895C31.3571 22.3245 30.8821 22.5323 30.2071 22.1389L26.5286 19.3223L24.7536 21.0962C24.5571 21.3003 24.3929 21.471 24.0143 21.471L24.2786 17.5782L31.0964 11.1768C31.3929 10.9022 31.0321 10.7501 30.6357 11.0247L22.2071 16.5391L18.5786 15.3591C17.7893 15.103 17.775 14.5389 18.7429 14.1456L32.9357 8.46413C33.5929 8.20808 34.1679 8.61628 33.9536 9.65906V9.65906Z" fill="white"/>
<defs>
<filter id="filter0_f_49_473" x="0.333328" y="1.66675" width="51.3333" height="35.3333" filterUnits="userSpaceOnUse" color-interpolation-filters="sRGB">
<feFlood flood-opacity="0" result="BackgroundImageFix"/>
<feBlend mode="normal" in="SourceGraphic" in2="BackgroundImageFix" result="shape"/>
<feGaussianBlur stdDeviation="2.5" result="effect1_foregroundBlur_49_473"/>
</filter>
<linearGradient id="paint0_linear_49_473" x1="6.51428" y1="32.0001" x2="48.8336" y2="8.08681" gradientUnits="userSpaceOnUse">
<stop stop-color="#64A5F1"/>
<stop offset="1" stop-color="#569AEA"/>
</linearGradient>
<linearGradient id="paint1_linear_49_473" x1="4.00001" y1="31.9999" x2="53.3333" y2="5.99992" gradientUnits="userSpaceOnUse">
<stop stop-color="#6197D6"/>
<stop offset="1" stop-color="#4A84C8"/>
</linearGradient>
<linearGradient id="paint2_linear_49_473" x1="4.00001" y1="30.6667" x2="53.3333" y2="4.66667" gradientUnits="userSpaceOnUse">
<stop stop-color="#64A5F1"/>
<stop offset="1" stop-color="#569AEA"/>
</linearGradient>
</defs>
</svg>
