<svg width="52" height="37" viewBox="0 0 52 37" fill="none" xmlns="http://www.w3.org/2000/svg">
<g filter="url(#filter0_f_49_473)">
<rect x="5.33333" y="6.66675" width="41.3333" height="25.3333" rx="12.6667" fill="url(#paint0_linear_49_473)"/>
</g>
<rect x="2.66667" y="1.33325" width="46.6667" height="30.6667" rx="15.3333" fill="url(#paint1_linear_49_473)"/>
<rect x="2.66667" width="46.6667" height="30.6667" rx="15.3333" fill="url(#paint2_linear_49_473)"/>
<mask id="mask0_49_473" style="mask-type:alpha" maskUnits="userSpaceOnUse" x="17" y="9" width="18" height="13">
<path d="M33.4967 9.41434L18.1427 14.4371C17.0948 14.7941 17.1009 15.29 17.9504 15.5111L21.8924 16.5543L31.013 11.6726C31.4443 11.45 31.8383 11.5698 31.5144 11.8137L24.1249 17.4711L23.853 20.9188C24.2514 20.9188 24.4272 20.7638 24.6506 20.5809L26.5653 19.0014L30.548 21.497C31.2824 21.8401 31.8097 21.6637 31.9925 20.9203L34.6069 10.4678C34.8745 9.55759 34.1973 9.14546 33.4967 9.41434Z" fill="#64A5F1"/>
</mask>
<g mask="url(#mask0_49_473)">
<rect x="16" y="5.33691" width="30.6667" height="26.6667" fill="white"/>
</g>
<defs>
<filter id="filter0_f_49_473" x="0.333328" y="1.66675" width="51.3333" height="35.3333" filterUnits="userSpaceOnUse" color-interpolation-filters="sRGB">
<feFlood flood-opacity="0" result="BackgroundImageFix"/>
<feBlend mode="normal" in="SourceGraphic" in2="BackgroundImageFix" result="shape"/>
<feGaussianBlur stdDeviation="2.5" result="effect1_foregroundBlur_49_473"/>
</filter>
<linearGradient id="paint0_linear_49_473" x1="6.51428" y1="32.0001" x2="48.8336" y2="8.08681" gradientUnits="userSpaceOnUse">
<stop stop-color="#64A5F1"/>
<stop offset="1" stop-color="#569AEA"/>
</linearGradient>
<linearGradient id="paint1_linear_49_473" x1="4.00001" y1="31.9999" x2="53.3333" y2="5.99992" gradientUnits="userSpaceOnUse">
<stop stop-color="#6197D6"/>
<stop offset="1" stop-color="#4A84C8"/>
</linearGradient>
<linearGradient id="paint2_linear_49_473" x1="4.00001" y1="30.6667" x2="53.3333" y2="4.66667" gradientUnits="userSpaceOnUse">
<stop stop-color="#64A5F1"/>
<stop offset="1" stop-color="#569AEA"/>
</linearGradient>
</defs>
</svg>
