<svg width="52" height="37" viewBox="0 0 52 37" fill="none" xmlns="http://www.w3.org/2000/svg">
<g filter="url(#filter0_f_49_459)">
<rect x="5.66666" y="6.66675" width="41.3333" height="25.3333" rx="12.6667" fill="url(#paint0_linear_49_459)"/>
<rect x="6.16666" y="7.16675" width="40.3333" height="24.3333" rx="12.1667" stroke="url(#paint1_linear_49_459)"/>
</g>
<rect x="3" y="1.33325" width="46.6667" height="30.6667" rx="15.3333" fill="url(#paint2_linear_49_459)"/>
<rect x="3" width="46.6667" height="30.6667" rx="15.3333" fill="url(#paint3_linear_49_459)"/>
<path d="M34.592 10.3381C34.3895 10.9748 34.1165 11.5291 33.7745 12.0323L33.7888 12.0098C33.4528 12.5698 33.0515 13.2168 32.585 13.9508C32.185 14.5303 31.9733 14.8303 31.9498 14.8508C31.8463 14.9806 31.7743 15.1396 31.7495 15.3143L31.7488 15.3196C31.769 15.4786 31.8425 15.6173 31.9498 15.7208L32.2498 16.0553C33.8548 17.7048 34.7575 18.8418 34.958 19.4663C34.9843 19.5353 34.9993 19.6148 34.9993 19.6981C34.9993 19.8436 34.9528 19.9778 34.874 20.0881L34.8755 20.0858C34.7435 20.2216 34.559 20.3056 34.355 20.3056C34.3325 20.3056 34.3092 20.3048 34.2875 20.3026H34.2905H32.3173C32.3165 20.3026 32.315 20.3026 32.3135 20.3026C32.0607 20.3026 31.8283 20.2141 31.646 20.0671L31.6483 20.0686C31.3828 19.8503 31.1465 19.6141 30.935 19.3576L30.9282 19.3486C30.5827 18.9581 30.2762 18.6293 30.0087 18.3623C29.1177 17.5153 28.4603 17.0918 28.0363 17.0918C28.0205 17.0903 28.0025 17.0896 27.9838 17.0896C27.86 17.0896 27.7445 17.1278 27.6493 17.1931L27.6515 17.1916C27.5735 17.2891 27.5263 17.4151 27.5263 17.5508C27.5263 17.5778 27.5278 17.6033 27.5315 17.6296V17.6266C27.5113 17.8621 27.4993 18.1358 27.4993 18.4126C27.4993 18.5018 27.5008 18.5903 27.503 18.6788V18.6661V19.5353C27.5105 19.5706 27.515 19.6111 27.515 19.6523C27.515 19.8338 27.4325 19.9958 27.3035 20.1031L27.3028 20.1038C27.0125 20.2366 26.6735 20.3146 26.3158 20.3146C26.2393 20.3146 26.1643 20.3108 26.09 20.3041L26.0998 20.3048C24.9193 20.2823 23.8243 19.9366 22.8935 19.3538L22.9198 19.3688C21.7865 18.6803 20.8475 17.7841 20.132 16.7251L20.1118 16.6936C19.4323 15.7921 18.7985 14.7736 18.2585 13.6996L18.206 13.5841C17.8903 12.9826 17.5633 12.2431 17.2813 11.4826L17.2363 11.3438C17.1215 11.0018 17.0383 10.6043 17.0038 10.1926L17.0023 10.1738C17.0023 9.79481 17.2253 9.60531 17.6713 9.60531H19.6438C19.6618 9.60381 19.6828 9.60306 19.7045 9.60306C19.8905 9.60306 20.0623 9.66681 20.198 9.77406L20.1965 9.77256C20.3465 9.93681 20.4575 10.1386 20.5123 10.3636L20.5145 10.3726C20.8775 11.3978 21.2623 12.2588 21.7048 13.0838L21.6545 12.9811C22.016 13.7086 22.4158 14.3348 22.8718 14.9131L22.8545 14.8898C23.2545 15.3808 23.5665 15.6263 23.7905 15.6263C23.7973 15.6271 23.8055 15.6271 23.8145 15.6271C23.9255 15.6271 24.0223 15.5671 24.0748 15.4771L24.0755 15.4756C24.131 15.3331 24.1633 15.1673 24.1633 14.9948C24.1633 14.9581 24.1618 14.9213 24.1588 14.8853V14.8898V11.9806C24.143 11.6378 24.059 11.3176 23.9188 11.0303L23.9248 11.0446C23.8318 10.8466 23.72 10.6756 23.5873 10.5233L23.5895 10.5263C23.4665 10.4033 23.3825 10.2421 23.3563 10.0621L23.3555 10.0576C23.3555 9.93006 23.414 9.81531 23.5055 9.74031L23.5063 9.73956C23.597 9.65631 23.7185 9.60606 23.8513 9.60606H23.8573H26.9668C26.9833 9.60381 27.002 9.60306 27.0215 9.60306C27.1678 9.60306 27.299 9.66906 27.386 9.77256L27.3868 9.77331C27.464 9.91431 27.5098 10.0831 27.5098 10.2616C27.5098 10.2901 27.5083 10.3178 27.506 10.3456V10.3418V14.2216C27.5045 14.2396 27.5038 14.2606 27.5038 14.2816C27.5038 14.4196 27.542 14.5493 27.608 14.6596L27.6065 14.6566C27.6613 14.7376 27.7528 14.7901 27.8563 14.7901H27.857C27.989 14.7811 28.109 14.7376 28.2103 14.6686L28.208 14.6701C28.412 14.5298 28.5875 14.3701 28.7398 14.1893L28.7428 14.1856C29.198 13.6711 29.618 13.1026 29.984 12.4981L30.0133 12.4456C30.2713 12.0181 30.5502 11.4916 30.803 10.9508L30.8495 10.8406L31.184 10.1716C31.3003 9.83706 31.6123 9.60156 31.979 9.60156C31.9933 9.60156 32.0075 9.60156 32.0217 9.60231H32.0195H33.9928C34.5258 9.60231 34.7258 9.84756 34.5928 10.3381H34.592Z" fill="white"/>
<defs>
<filter id="filter0_f_49_459" x="0.666664" y="1.66675" width="51.3333" height="35.3333" filterUnits="userSpaceOnUse" color-interpolation-filters="sRGB">
<feFlood flood-opacity="0" result="BackgroundImageFix"/>
<feBlend mode="normal" in="SourceGraphic" in2="BackgroundImageFix" result="shape"/>
<feGaussianBlur stdDeviation="2.5" result="effect1_foregroundBlur_49_459"/>
</filter>
<linearGradient id="paint0_linear_49_459" x1="6.84762" y1="32.0001" x2="49.1669" y2="8.08681" gradientUnits="userSpaceOnUse">
<stop stop-color="#096DDE"/>
<stop offset="1" stop-color="#51A0FB"/>
</linearGradient>
<linearGradient id="paint1_linear_49_459" x1="6.84762" y1="32.0001" x2="49.1669" y2="8.08681" gradientUnits="userSpaceOnUse">
<stop stop-color="#53A3FF"/>
<stop offset="1" stop-color="#2787F5"/>
</linearGradient>
<linearGradient id="paint2_linear_49_459" x1="4.33333" y1="31.9999" x2="53.6667" y2="5.99992" gradientUnits="userSpaceOnUse">
<stop stop-color="#4D95E9"/>
<stop offset="1" stop-color="#1B75DC"/>
</linearGradient>
<linearGradient id="paint3_linear_49_459" x1="4.33333" y1="30.6667" x2="53.6667" y2="4.66667" gradientUnits="userSpaceOnUse">
<stop stop-color="#53A3FF"/>
<stop offset="1" stop-color="#2787F5"/>
</linearGradient>
</defs>
</svg>
