<svg width="52" height="37" viewBox="0 0 52 37" fill="none" xmlns="http://www.w3.org/2000/svg">
<g filter="url(#filter0_f_49_466)">
<rect x="5" y="6.66675" width="41.3333" height="25.3333" rx="12.6667" fill="url(#paint0_linear_49_466)"/>
</g>
<rect x="2.33333" y="1.33325" width="46.6667" height="30.6667" rx="15.3333" fill="url(#paint1_linear_49_466)"/>
<rect x="2.33334" width="46.6667" height="30.6667" rx="15.3333" fill="url(#paint2_linear_49_466)"/>
<mask id="mask0_49_466" style="mask-type:alpha" maskUnits="userSpaceOnUse" x="17" y="8" width="18" height="15">
<path d="M31.9933 14.1552C32.0141 12.087 29.8766 10.1912 27.2288 9.92871C27.1716 9.92283 27.1146 9.91568 27.0578 9.90726C26.9247 9.88626 26.7898 9.87431 26.6543 9.8715C26.111 9.8715 25.9661 10.1862 25.9279 10.3728C25.8906 10.5552 25.9262 10.7089 26.0329 10.8284C26.2125 11.0293 26.5293 11.0651 26.7836 11.0937C26.8574 11.1022 26.9277 11.1101 26.9867 11.1208C29.3663 11.5592 30.1673 12.2479 30.5588 14.1923C30.5683 14.2395 30.5726 14.2982 30.5778 14.3604C30.5952 14.5928 30.6299 15.0762 31.2608 15.0762C31.3129 15.0762 31.3702 15.0727 31.4292 15.0655C32.0159 14.9919 31.9977 14.5499 31.989 14.3375C31.9864 14.2774 31.9838 14.2209 31.9907 14.183C31.9921 14.1736 31.9927 14.164 31.9924 14.1544L31.9933 14.1552Z" fill="#665CAC"/>
<path d="M26.4998 9.16996C26.571 9.17425 26.6369 9.17854 26.6925 9.18498C30.6004 9.68056 32.3977 11.2059 32.895 14.4512C32.9037 14.5063 32.9054 14.5735 32.9063 14.6443C32.9115 14.8982 32.9219 15.4259 33.6093 15.4367H33.6301C33.8462 15.4367 34.0171 15.383 34.1404 15.2772C34.3539 15.0934 34.34 14.8195 34.327 14.5992C34.3244 14.5449 34.3218 14.4941 34.3218 14.4491C34.3721 11.1309 30.8851 8.12086 26.8617 8.0093C26.8443 8.0093 26.8287 8.0093 26.8131 8.01144C26.7973 8.01309 26.7813 8.01381 26.7654 8.01359C26.7246 8.01359 26.676 8.01073 26.623 8.00787C26.5606 8.00429 26.4885 8 26.4148 8C25.7743 8 25.6528 8.37544 25.6372 8.59928C25.6016 9.11632 26.2082 9.15279 26.4998 9.16996ZM32.7067 18.6455C32.6228 18.5929 32.5398 18.5395 32.4576 18.4853C32.0306 18.2021 31.5767 17.9418 31.1385 17.6893L30.8651 17.532C30.3027 17.2066 29.7976 17.0486 29.3203 17.0486C28.6764 17.0486 28.1157 17.3418 27.6523 17.9189C27.4475 18.1749 27.1984 18.2993 26.8921 18.2993C26.6793 18.2932 26.4705 18.2501 26.2794 18.1728C24.4656 17.4948 23.169 16.455 22.4278 15.0827C22.0694 14.419 22.1857 13.9857 22.8158 13.6324C23.1742 13.4322 23.8398 13.0596 23.7938 12.3451C23.74 11.5349 21.5695 9.09558 20.6548 8.81883C20.2638 8.70129 19.8351 8.70028 19.4433 8.81597C18.3923 9.10703 17.639 9.61906 17.2615 10.2949C16.897 10.9485 16.9144 11.7158 17.3084 12.5139C18.4496 14.8217 20.0534 16.834 22.0764 18.4946C24.0559 20.1201 26.4894 21.4509 29.3082 22.4514C29.5625 22.5415 29.8289 22.5909 30.0242 22.6266C30.0901 22.6388 30.1474 22.6495 30.189 22.6588C30.212 22.6639 30.2356 22.6665 30.2593 22.6667H30.2819C31.608 22.6667 33.2005 21.6683 33.6891 20.5306C34.1178 19.5337 33.335 19.0409 32.7067 18.6455ZM27.0865 11.8067C26.86 11.8109 26.387 11.821 26.2212 12.2171C26.1431 12.4031 26.1527 12.5633 26.249 12.6956C26.3896 12.8887 26.6595 12.9487 26.9042 12.9816C27.7938 13.0989 28.2511 13.5037 28.3423 14.2567C28.3848 14.6071 28.672 14.8524 29.0391 14.8524C29.067 14.8524 29.0948 14.8509 29.1225 14.8481C29.5651 14.8052 29.7794 14.537 29.7603 14.0515C29.7673 13.5451 29.4462 12.9702 28.8985 12.5125C28.3501 12.0534 27.6888 11.7945 27.0865 11.8067Z" fill="#665CAC"/>
</mask>
<g mask="url(#mask0_49_466)">
<rect x="10.3333" y="1.33325" width="30.6667" height="26.6667" fill="white"/>
</g>
<defs>
<filter id="filter0_f_49_466" x="0" y="1.66675" width="51.3333" height="35.3333" filterUnits="userSpaceOnUse" color-interpolation-filters="sRGB">
<feFlood flood-opacity="0" result="BackgroundImageFix"/>
<feBlend mode="normal" in="SourceGraphic" in2="BackgroundImageFix" result="shape"/>
<feGaussianBlur stdDeviation="2.5" result="effect1_foregroundBlur_49_466"/>
</filter>
<linearGradient id="paint0_linear_49_466" x1="6.18095" y1="32.0001" x2="48.5002" y2="8.08681" gradientUnits="userSpaceOnUse">
<stop stop-color="#50B069"/>
<stop offset="1" stop-color="#91DAA8"/>
</linearGradient>
<linearGradient id="paint1_linear_49_466" x1="3.66666" y1="31.9999" x2="53" y2="5.99992" gradientUnits="userSpaceOnUse">
<stop stop-color="#50B069"/>
<stop offset="1" stop-color="#91DAA8"/>
</linearGradient>
<linearGradient id="paint2_linear_49_466" x1="3.66668" y1="30.6667" x2="53" y2="4.66667" gradientUnits="userSpaceOnUse">
<stop stop-color="#54C772"/>
<stop offset="1" stop-color="#A4F2BC"/>
</linearGradient>
</defs>
</svg>
