<svg width="52" height="37" viewBox="0 0 52 37" fill="none" xmlns="http://www.w3.org/2000/svg">
<g filter="url(#filter0_f_49_466)">
<rect x="5" y="6.66675" width="41.3333" height="25.3333" rx="12.6667" fill="url(#paint0_linear_49_466)"/>
</g>
<rect x="2.33333" y="1.33325" width="46.6667" height="30.6667" rx="15.3333" fill="url(#paint1_linear_49_466)"/>
<rect x="2.33334" width="46.6667" height="30.6667" rx="15.3333" fill="url(#paint2_linear_49_466)"/>
<g clip-path="url(#clip0_49_466)">
<path d="M30.6848 17.9072C30.0967 17.3267 29.3626 17.3267 28.7783 17.9072C28.3326 18.3492 27.8868 18.7912 27.4486 19.2407C27.3287 19.3643 27.2276 19.3905 27.0815 19.3081C26.7931 19.1508 26.486 19.0234 26.2088 18.8511C24.9165 18.0383 23.8341 16.9933 22.8752 15.8172C22.3995 15.2329 21.9762 14.6073 21.6803 13.9032C21.6204 13.7608 21.6316 13.6672 21.7477 13.5511C22.1935 13.1203 22.628 12.6783 23.0662 12.2364C23.6767 11.6221 23.6767 10.9029 23.0625 10.2849C22.7141 9.9328 22.3658 9.5882 22.0174 9.23611C21.6578 8.87653 21.302 8.51321 20.9387 8.15737C20.3506 7.58429 19.6165 7.58429 19.0322 8.16112C18.5827 8.6031 18.1519 9.05632 17.695 9.49082C17.2717 9.8916 17.0582 10.3823 17.0133 10.9554C16.9421 11.888 17.1706 12.7682 17.4927 13.626C18.1519 15.4014 19.1558 16.9783 20.3731 18.4241C22.0174 20.3794 23.9801 21.9263 26.2762 23.0425C27.31 23.5444 28.3812 23.9302 29.5461 23.9939C30.3477 24.0388 31.0444 23.8366 31.6025 23.2111C31.9845 22.7841 32.4153 22.3945 32.8198 21.9862C33.4191 21.3794 33.4229 20.6453 32.8273 20.046C32.1156 19.3306 31.4002 18.6189 30.6848 17.9072Z" fill="white"/>
<path d="M29.9694 14.922L31.3515 14.686C31.1343 13.4162 30.535 12.2663 29.6248 11.3524C28.6622 10.3898 27.4448 9.78298 26.1039 9.5957L25.9091 10.9853C26.9467 11.1314 27.8906 11.5996 28.636 12.345C29.3401 13.0492 29.8008 13.9406 29.9694 14.922Z" fill="white"/>
<path d="M32.1306 8.9141C30.535 7.31846 28.5161 6.31089 26.2874 6L26.0927 7.38963C28.0179 7.65931 29.7634 8.53205 31.1418 9.90669C32.449 11.2139 33.3068 12.8657 33.6176 14.6824L34.9998 14.4464C34.6364 12.3414 33.6439 10.4311 32.1306 8.9141Z" fill="white"/>
</g>
<defs>
<filter id="filter0_f_49_466" x="0" y="1.66675" width="51.3333" height="35.3333" filterUnits="userSpaceOnUse" color-interpolation-filters="sRGB">
<feFlood flood-opacity="0" result="BackgroundImageFix"/>
<feBlend mode="normal" in="SourceGraphic" in2="BackgroundImageFix" result="shape"/>
<feGaussianBlur stdDeviation="2.5" result="effect1_foregroundBlur_49_466"/>
</filter>
<linearGradient id="paint0_linear_49_466" x1="6.18095" y1="32.0001" x2="48.5002" y2="8.08681" gradientUnits="userSpaceOnUse">
<stop stop-color="#50B069"/>
<stop offset="1" stop-color="#91DAA8"/>
</linearGradient>
<linearGradient id="paint1_linear_49_466" x1="3.66666" y1="31.9999" x2="53" y2="5.99992" gradientUnits="userSpaceOnUse">
<stop stop-color="#50B069"/>
<stop offset="1" stop-color="#91DAA8"/>
</linearGradient>
<linearGradient id="paint2_linear_49_466" x1="3.66668" y1="30.6667" x2="53" y2="4.66667" gradientUnits="userSpaceOnUse">
<stop stop-color="#54C772"/>
<stop offset="1" stop-color="#A4F2BC"/>
</linearGradient>
<clipPath id="clip0_49_466">
<rect width="18" height="18" fill="white" transform="translate(17 6)"/>
</clipPath>
</defs>
</svg>
