<svg width="20" height="16" viewBox="0 0 20 16" fill="none" xmlns="http://www.w3.org/2000/svg">
<path fill-rule="evenodd" clip-rule="evenodd" d="M1.4309 0.0655582C0.435161 0.306594 -0.191508 1.32206 0.0598781 2.28722C0.13663 2.58192 0.280681 2.84518 0.476955 3.04943C0.652175 3.23179 8.97215 8.79464 9.27662 8.93303C9.74076 9.14395 10.2938 9.13625 10.7676 8.91221C11.1392 8.73644 19.2899 3.28163 19.4969 3.07013C20.4697 2.07614 19.9388 0.391197 18.5496 0.0637615C18.184 -0.0224036 1.78724 -0.0206851 1.4309 0.0655582ZM0 8.76726C0 11.9306 0.013124 13.3822 0.0430435 13.526C0.186157 14.2145 0.743536 14.776 1.44883 14.9423C1.81677 15.029 18.116 15.0317 18.5247 14.9451C19.2356 14.7944 19.8102 14.2245 19.9554 13.526C20.005 13.2877 20.0184 4.20668 19.9691 4.22855C19.953 4.2357 18.0641 5.49338 15.7716 7.02337C13.4791 8.55337 11.4777 9.86846 11.3241 9.9458C10.8924 10.1632 10.5263 10.2462 9.99922 10.2462C9.47215 10.2462 9.10608 10.1632 8.67432 9.9458C8.52074 9.86846 6.51937 8.55337 4.22682 7.02337C1.9343 5.49338 0.0454261 4.2357 0.0292946 4.22855C0.013163 4.22137 0 6.26382 0 8.76726Z" fill="#5D8FF1"/>
</svg>
