<svg width="20" height="24" viewBox="0 0 20 24" fill="none" xmlns="http://www.w3.org/2000/svg">
<path fill-rule="evenodd" clip-rule="evenodd" d="M9.23066 0.0238445C9.15382 0.0327671 8.89401 0.062725 8.65333 0.0904638C7.69622 0.200818 6.41214 0.596974 5.48176 1.069C3.54448 2.05187 1.90567 3.70908 0.990239 5.61095C-0.669339 9.05879 -0.219331 13.0843 2.16297 16.1018C2.30506 16.2818 4.04776 18.0453 6.03557 20.0208C9.24533 23.2104 9.66936 23.6159 9.82444 23.6435C10.2655 23.722 10.0348 23.924 13.9626 20.0208C15.9504 18.0453 17.6931 16.2818 17.8352 16.1018C20.6802 12.4982 20.7251 7.53986 17.9456 3.90039C17.5782 3.41931 16.8832 2.70517 16.3559 2.26704C14.5878 0.797711 12.2375 -0.0289517 9.91264 0.000775021C9.6144 0.00456599 9.3075 0.014968 9.23066 0.0238445ZM11.1386 5.63356C11.9369 5.8477 12.6186 6.25005 13.1928 6.84574C13.7887 7.4639 14.1118 8.03014 14.3375 8.8514C14.4711 9.33766 14.4845 10.4391 14.3628 10.9208C14.0286 12.2425 13.1855 13.2959 11.9811 13.8966C11.3311 14.2207 10.8101 14.3393 10.0224 14.3426C9.21767 14.3459 8.74866 14.2428 8.06478 13.9122C7.49848 13.6386 7.12294 13.3648 6.7175 12.9301C6.19717 12.3721 5.82992 11.6903 5.63548 10.9212C5.51361 10.439 5.52702 9.33789 5.66068 8.8514C6.13262 7.13362 7.44954 5.90415 9.18409 5.5619C9.65939 5.46814 10.6587 5.50476 11.1386 5.63356Z" fill="#5D8FF1"/>
</svg>
