<svg width="20" height="21" viewBox="0 0 20 21" fill="none" xmlns="http://www.w3.org/2000/svg">
<path fill-rule="evenodd" clip-rule="evenodd" d="M3.76829 0.129407C3.03262 0.552994 0.783397 3.1502 0.142479 4.31621C-0.00934416 4.59239 -0.0152384 4.61941 0.0136527 4.90394C0.11082 5.85936 0.535345 7.23148 1.12138 8.48425C1.76739 9.86531 2.85981 11.5177 4.10302 12.9943C4.73701 13.7473 6.22287 15.2367 6.96105 15.8592C9.63247 18.1117 12.323 19.5207 14.7478 19.9369C14.966 19.9743 15.2054 20.005 15.28 20.005C15.5362 20.005 16.242 19.5511 17.3075 18.701C18.6836 17.6033 19.7665 16.5313 19.9522 16.0831C20.1006 15.7246 19.809 15.3865 18.7411 14.6795C17.1922 13.6541 15.7496 12.8429 15.0679 12.614C14.7488 12.5069 14.7239 12.5048 14.5641 12.5715C14.3486 12.6613 14.2065 12.7982 13.5914 13.5078C13.3147 13.8271 12.9987 14.175 12.889 14.281L12.6898 14.4737L12.4042 14.3999C11.4736 14.1595 10.2169 13.503 9.17338 12.7121C8.71175 12.3622 7.93437 11.6096 7.50466 11.0965C6.69473 10.1294 5.92646 8.73302 5.6179 7.66717L5.51712 7.31892L5.75905 7.07113C5.89212 6.93485 6.22203 6.6362 6.49218 6.40748C7.11528 5.87999 7.34123 5.64609 7.42724 5.43943C7.4906 5.28716 7.48895 5.25287 7.40527 4.98195C7.15507 4.17179 5.32671 1.09291 4.66601 0.36902C4.29865 -0.0334905 4.12954 -0.078591 3.76829 0.129407ZM10.712 0.714463V1.42893L10.9241 1.42928C11.8541 1.43089 13.0893 1.73097 14.0484 2.18831C15.6866 2.96944 16.9243 4.18028 17.7225 5.78269C18.2226 6.78682 18.4352 7.54281 18.5357 8.67403L18.5902 9.28802H19.2951H20V9.09181C20 8.74869 19.913 7.98716 19.8158 7.47954C19.5515 6.09888 18.8155 4.52358 17.94 3.46452C16.3402 1.52917 14.1963 0.352677 11.7475 0.0662219C11.4362 0.0297843 11.0758 0 10.9467 0H10.712V0.714463ZM10.712 4.27396V4.98838L11.0647 5.01781C12.1063 5.10471 13.0108 5.53816 13.7708 6.31474C14.4932 7.053 14.8956 7.92558 14.9821 8.94195L15.0116 9.28802H15.7197H16.4277V9.10396C16.4277 8.48796 16.1537 7.39657 15.8441 6.77976C15.2994 5.69414 14.3326 4.71648 13.2796 4.18644C12.6157 3.8523 11.8718 3.64707 11.1186 3.59018L10.712 3.5595V4.27396Z" fill="#5D8FF1"/>
</svg>
