<svg width="20" height="15" viewBox="0 0 20 15" fill="none" xmlns="http://www.w3.org/2000/svg">
<path fill-rule="evenodd" clip-rule="evenodd" d="M17.9102 0.0189978C17.8672 0.0376323 15.4679 2.47451 12.5784 5.4343L7.32465 10.8157L4.72609 8.15669C2.27469 5.6482 2.11977 5.49764 1.99043 5.49764C1.86344 5.49764 1.7848 5.56798 0.926641 6.44928C0.138164 7.259 0 7.41843 0 7.51844C0 7.62093 0.453164 8.10031 3.54492 11.268C5.49461 13.2657 7.14 14.9274 7.20129 14.9606C7.28895 15.0082 7.33512 15.0116 7.41781 14.9765C7.47559 14.952 10.3302 12.0577 13.7614 8.54478C19.228 2.94796 20 2.143 20 2.03984C20 1.93943 19.8635 1.78259 19.0723 0.974233C18.562 0.452908 18.1094 0.0170786 18.0664 0.00576202C18.0234 -0.0055946 17.9531 0.000363375 17.9102 0.0189978Z" fill="#5D8FF1"/>
</svg>
