<svg width="19" height="14" viewBox="0 0 19 14" fill="none" xmlns="http://www.w3.org/2000/svg">
<path fill-rule="evenodd" clip-rule="evenodd" d="M16.3567 0.01735C16.3175 0.0343682 14.1263 2.25988 11.4874 4.96296L6.68935 9.8776L4.31618 7.44922C2.07739 5.1583 1.93591 5.02081 1.81779 5.02081C1.70181 5.02081 1.63 5.08505 0.846269 5.8899C0.12618 6.62939 0 6.775 0 6.86633C0 6.95993 0.413859 7.39773 3.23745 10.2907C5.01804 12.1151 6.52071 13.6326 6.57669 13.663C6.65674 13.7065 6.69891 13.7096 6.77443 13.6776C6.82719 13.6552 9.43425 11.0119 12.5679 7.80365C17.5602 2.69227 18.2653 1.95713 18.2653 1.86291C18.2653 1.77121 18.1406 1.62798 17.418 0.889733C16.9521 0.413626 16.5387 0.0155973 16.4994 0.00526225C16.4602 -0.00510935 16.396 0.000331858 16.3567 0.01735Z" fill="#88DB73"/>
</svg>
