<svg width="38" height="43" viewBox="0 0 38 43" fill="none" xmlns="http://www.w3.org/2000/svg">
<path fill-rule="evenodd" clip-rule="evenodd" d="M16.477 1.00406C11.7453 1.58116 7.2564 3.95414 4.34543 7.41725C3.48267 8.44372 3.36588 9.01101 3.91439 9.51263C4.41016 9.96585 4.99042 9.8933 5.52993 9.31076C7.7797 6.88141 9.03752 5.86582 11.0286 4.87118C13.6829 3.54523 15.5526 3.10952 18.5893 3.10952C20.1294 3.10952 21.0154 3.1757 21.8599 3.35357C28.2151 4.69186 33.0511 9.31832 34.5613 15.5043C34.7927 16.4524 34.8503 17.2824 34.9235 20.7222L35.0104 24.8128L35.3322 25.066C35.7861 25.4235 36.3822 25.389 36.8014 24.981L37.1489 24.6428L37.0856 20.5709C37.0321 17.1222 36.9803 16.3164 36.7473 15.3054C35.0122 7.78001 28.9932 2.24235 21.3148 1.10739C20.1423 0.934031 17.5115 0.877793 16.477 1.00406ZM16.477 5.30464C12.1218 5.90972 8.01654 8.79746 5.99313 12.6792C4.65859 15.2393 4.41793 16.6671 4.41725 22.0301C4.41697 24.5129 4.35742 26.3764 4.26475 26.805C4.02832 27.8995 3.50352 28.8484 2.63491 29.7521C1.72963 30.6941 1.50273 31.1373 1.68602 31.6061C1.84519 32.0137 2.33742 32.349 2.77663 32.349C3.34136 32.349 4.95867 30.6086 5.635 29.2732C6.50662 27.5521 6.59206 26.9216 6.59479 22.1866C6.59656 19.0983 6.6493 17.7681 6.80424 16.9033C7.67586 12.0385 11.7521 8.17102 16.8177 7.4024C18.057 7.21446 20.3804 7.32136 21.506 7.6182C21.9485 7.73492 22.7599 8.00403 23.3092 8.21638C24.4088 8.64161 24.7864 8.60925 25.1849 8.05563C25.6275 7.4406 25.3368 6.76509 24.4741 6.40352C21.9058 5.32732 19.0943 4.94108 16.477 5.30464ZM17.1633 8.87969C15.0798 9.19497 13.2222 10.1178 11.7105 11.5889C10.463 12.8028 9.74642 13.9129 9.22639 15.438C8.8868 16.4334 8.86104 16.6853 8.80817 19.51L8.75175 22.521L9.09911 22.8591C9.55468 23.3025 10.1755 23.3075 10.6233 22.8715C10.9549 22.549 10.9579 22.5234 10.9579 20.0479C10.9579 17.2735 11.0803 16.5565 11.8013 15.1064C12.085 14.5357 12.5561 13.9254 13.1951 13.3011C14.7236 11.8076 16.4516 11.0983 18.5794 11.0907C22.4396 11.0771 25.6793 13.8641 26.1688 17.62C26.3327 18.8776 27.2976 19.3758 28.0851 18.6093C28.4199 18.2834 28.4333 18.2172 28.3477 17.3198C28.2398 16.1898 27.6531 14.4642 27.02 13.4148C26.7677 12.9967 26.0603 12.1667 25.4478 11.5703C23.7143 9.88242 21.5959 8.96524 19.0984 8.82133C18.4811 8.78579 17.6103 8.81205 17.1633 8.87969ZM27.3596 8.87147C26.9838 9.01896 26.6295 9.5129 26.6295 9.88905C26.6295 10.0552 26.9351 10.5192 27.3307 10.9538C28.9789 12.7649 29.9957 14.771 30.3885 16.9869C30.5724 18.0235 30.5972 19.0538 30.5449 23.4606C30.4801 28.9079 30.3936 29.9069 29.7538 32.5863C29.4233 33.9705 29.4248 34.2738 29.7639 34.6038C30.1266 34.9569 30.9967 34.9633 31.3205 34.6151C31.6327 34.2793 32.0093 32.8371 32.3795 30.5584C32.6575 28.8474 32.6815 28.2327 32.686 22.7329C32.6906 16.9884 32.6796 16.726 32.393 15.7433C31.7145 13.4165 30.7362 11.5701 29.3489 9.99834C28.7429 9.31182 27.9424 8.70528 27.6992 8.74825C27.673 8.7529 27.5202 8.80834 27.3596 8.87147ZM2.01008 11.5914C1.67853 11.7271 1.5244 11.923 1.31549 12.4745C0.269034 15.2356 0.176232 15.8522 0.0962381 20.5697L0.0272827 24.6404L0.376011 24.9798C0.796419 25.389 1.39194 25.4239 1.84642 25.066L2.16816 24.8128L2.25511 20.7222C2.34832 16.3412 2.44508 15.625 3.23765 13.4519C3.52805 12.6554 3.5519 12.4721 3.40949 12.1324C3.18273 11.5913 2.57985 11.3583 2.01008 11.5914ZM17.3108 13.7864C16.4484 13.9973 15.2211 14.7043 14.6253 15.3333C14.3194 15.6564 13.8749 16.3196 13.6378 16.8068L13.2064 17.6928L13.1255 22.7993C13.0469 27.7531 13.0338 27.9445 12.6894 29.2025C12.0691 31.4686 10.9049 33.5888 9.32329 35.3325C8.42074 36.3276 8.28419 36.8292 8.75992 37.401C9.19832 37.9279 9.8846 37.8237 10.6233 37.1181C12.134 35.675 13.7237 33.0381 14.4912 30.7022C15.1916 28.5706 15.3169 27.3537 15.3179 22.682C15.3184 19.8036 15.3698 18.3509 15.4844 17.9735C15.8304 16.8336 17.3294 15.7696 18.5893 15.7696C19.8492 15.7696 21.3482 16.8336 21.6942 17.9735C21.8088 18.3509 21.8599 19.7956 21.8599 22.6548V26.7904L22.1945 27.1159C22.6404 27.55 23.2631 27.5468 23.7139 27.1081L24.0565 26.7746L24.0144 22.2264L23.9722 17.6781L23.4632 16.6763C22.5421 14.8631 20.906 13.7991 18.8958 13.706C18.315 13.6791 17.6017 13.7153 17.3108 13.7864ZM17.889 18.1451L17.5672 18.3984L17.4898 23.1521C17.4212 27.3615 17.3782 28.0604 17.1141 29.257C16.7019 31.1255 16.119 32.6811 15.1651 34.4599C14.5242 35.6546 14.3709 36.0533 14.4378 36.3498C14.6285 37.1947 15.7346 37.4028 16.3363 36.707C16.8394 36.125 18.0915 33.5778 18.5762 32.1501C19.4856 29.4719 19.571 28.7728 19.6422 23.4366L19.707 18.5696L19.3587 18.2306C18.939 17.8221 18.3432 17.7874 17.889 18.1451ZM26.573 21.3832C26.2619 21.6861 26.2549 21.7537 26.1834 25.1302C26.1046 28.848 25.9584 30.0238 25.2526 32.6122C24.5967 35.0175 23.5015 37.5352 22.1857 39.6614C21.9316 40.0721 21.7236 40.584 21.7236 40.7987C21.7236 41.5334 22.6457 42.005 23.357 41.6344C23.9654 41.3176 25.9349 37.4597 26.8442 34.8041C27.9736 31.5052 28.4011 28.6401 28.4011 24.3709C28.4011 21.7398 28.3993 21.7244 28.0666 21.4006C27.6318 20.9774 26.9976 20.9701 26.573 21.3832ZM9.11955 25.6178C8.83583 25.8565 8.73853 26.1019 8.63264 26.8446C8.29209 29.2345 7.4322 30.907 5.4528 33.03C4.67971 33.8591 4.00461 34.6688 3.95241 34.8293C3.84148 35.1704 4.16323 35.858 4.49097 35.9804C5.17398 36.2355 5.44094 36.0856 6.90331 34.626C8.36963 33.1626 8.9533 32.3944 9.7118 30.9294C10.2592 29.8719 10.7753 28.134 10.8962 26.9405C10.9862 26.0503 10.9733 25.9854 10.64 25.661C10.1991 25.2319 9.59829 25.2148 9.11955 25.6178ZM21.7349 29.7958C21.5352 29.9548 21.337 30.4373 21.1055 31.3287C20.3264 34.3286 18.9111 37.1418 16.8737 39.7407C15.9378 40.9344 15.8066 41.3773 16.2386 41.8837C16.3698 42.0374 16.6795 42.2013 16.9272 42.248C17.3356 42.3248 17.4374 42.272 18.0251 41.6785C20.0571 39.6266 22.4727 35.0184 23.298 31.6195C23.5655 30.5177 23.5454 30.2636 23.1607 29.8893C22.7633 29.5025 22.1534 29.4625 21.7349 29.7958ZM28.9086 36.096C28.5945 36.3264 28.2648 37.1563 28.2648 37.7165C28.2648 38.3044 28.6611 38.7155 29.2278 38.7155C29.8831 38.7155 30.1308 38.5081 30.4421 37.6985C30.6853 37.0657 30.7057 36.8852 30.5697 36.5655C30.4807 36.3565 30.2976 36.1279 30.163 36.0578C29.8203 35.8792 29.1773 35.8989 28.9086 36.096ZM12.2989 38.429C11.3757 39.3275 11.2599 39.8173 11.8376 40.3794C12.3726 40.9003 12.8911 40.8167 13.7011 40.0792C14.0793 39.735 14.4765 39.2878 14.584 39.0856C14.9707 38.3577 14.469 37.6544 13.5631 37.6544C13.1737 37.6544 12.9605 37.7851 12.2989 38.429Z" fill="white"/>
</svg>
