<svg width="45" height="45" viewBox="0 0 45 45" fill="none" xmlns="http://www.w3.org/2000/svg">
<circle cx="22.5" cy="22.5" r="22.5" fill="#F1F3F8"/>
<path fill-rule="evenodd" clip-rule="evenodd" d="M15.1284 19.6256C15.3621 19.1573 15.8631 18.9432 16.3717 19.0942C16.5561 19.149 16.6887 19.2379 16.8764 19.4325C17.0165 19.5777 18.3293 21.0956 19.7938 22.8058C21.2582 24.516 22.4718 25.914 22.4906 25.9125C22.5094 25.9111 23.7067 24.5268 25.1512 22.8363C28.4667 18.9564 28.296 19.1428 28.6191 19.0469C29.5244 18.7781 30.3156 19.7172 29.874 20.5363C29.7152 20.8306 23.3188 28.273 23.0776 28.4439C22.6317 28.76 22.0994 28.6959 21.6913 28.277C21.5632 28.1456 20.0311 26.3712 18.2866 24.334C15.907 21.5553 15.0999 20.5806 15.0554 20.4322C14.9643 20.1287 14.9836 19.9157 15.1284 19.6256Z" fill="#5D8FF1"/>
</svg>
