<svg width="20" height="21" viewBox="0 0 20 21" fill="none" xmlns="http://www.w3.org/2000/svg">
<path fill-rule="evenodd" clip-rule="evenodd" d="M7.52472 0.0170824C3.8225 0.414475 0.855999 3.12896 0.125758 6.78743C-0.0419194 7.62733 -0.0419194 9.0523 0.125758 9.8922C0.459077 11.562 1.24707 13.0499 2.41862 14.2215C3.61983 15.4227 5.04178 16.1825 6.76754 16.5453C7.57292 16.7146 9.05774 16.7166 9.88652 16.5494C10.8235 16.3605 11.8237 15.9838 12.533 15.5529C12.7282 15.4343 12.9025 15.3373 12.9204 15.3373C12.9382 15.3373 13.9521 16.3322 15.1736 17.5482C17.696 20.0596 17.6322 20.0105 18.3603 20.007C18.8843 20.0045 19.1983 19.8804 19.5365 19.5422C19.877 19.2017 19.9999 18.8897 19.9999 18.366C19.9999 17.6322 20.0524 17.7001 17.5303 15.167C15.386 13.0132 15.3097 12.9299 15.3809 12.8171C15.9383 11.9337 16.3323 10.9404 16.5455 9.88155C16.7112 9.05815 16.7098 7.62837 16.5422 6.78743C15.8688 3.40609 13.2888 0.813747 9.92683 0.140269C9.41518 0.0377615 8.00546 -0.0345107 7.52472 0.0170824ZM9.22186 2.56718C10.4511 2.75382 11.5643 3.32056 12.4589 4.21508C14.7489 6.50513 14.7489 10.1745 12.4589 12.4645C10.7223 14.2011 8.08373 14.6757 5.90142 13.6441C4.08323 12.7847 2.85502 11.1605 2.5615 9.22755C2.1829 6.73468 3.42119 4.30871 5.6633 3.15074C6.7772 2.57538 7.97872 2.37836 9.22186 2.56718Z" fill="#5D8FF1"/>
</svg>
