<svg width="15" height="16" viewBox="0 0 15 16" fill="none" xmlns="http://www.w3.org/2000/svg">
<path fill-rule="evenodd" clip-rule="evenodd" d="M7.74481 0.0177524C7.74481 0.0341228 7.71181 0.274427 7.67147 0.551726C7.63113 0.829025 7.59812 1.07928 7.59812 1.10785C7.59812 1.14992 7.64119 1.16661 7.82549 1.19601C8.72601 1.3395 9.80604 1.76454 10.5891 2.28361C11.0709 2.60298 11.376 2.85015 11.7748 3.24419C12.8084 4.26546 13.4873 5.50095 13.8017 6.93266C13.857 7.18455 13.8741 7.22536 13.9226 7.22131C14.068 7.2091 14.9789 7.05403 14.9971 7.03839C15.0084 7.02862 14.986 6.87463 14.9474 6.69614C14.3936 4.13529 12.6964 1.96066 10.3511 0.806934C9.60746 0.441065 8.85776 0.18882 8.15519 0.068037C8.0021 0.0417212 7.84714 0.012941 7.81082 0.00405171C7.7745 -0.00480825 7.74481 0.00135265 7.74481 0.0177524ZM2.29843 1.46113C2.01612 1.51984 1.88674 1.62038 1.133 2.36684C0.731716 2.76428 0.358923 3.15787 0.304561 3.24152C-0.222255 4.0522 -0.0645944 5.39592 0.769532 7.20438C1.70323 9.22876 3.38298 11.2716 5.30979 12.726C6.44439 13.5825 7.79691 14.3202 8.91831 14.6943C9.84494 15.0034 10.7164 15.0908 11.2712 14.9303C11.6865 14.8102 11.7788 14.7402 12.6059 13.917C13.3021 13.2242 13.3833 13.1331 13.4694 12.9486C13.5504 12.7749 13.5645 12.7119 13.5645 12.5215C13.5645 12.3313 13.5504 12.2678 13.4697 12.0944C13.382 11.906 13.2952 11.8113 12.3128 10.8314C11.4471 9.96798 11.2208 9.75778 11.0893 9.69497C10.867 9.58877 10.6566 9.55297 10.4659 9.58891C10.1496 9.6485 10.0315 9.73648 9.29624 10.4604C8.91515 10.8356 8.58087 11.1426 8.55338 11.1426C8.48221 11.1426 7.79078 10.7863 7.52408 10.6122C6.48769 9.93565 5.31 8.78885 4.55658 7.72251C4.29744 7.35573 4.1761 7.15225 4.00289 6.79401C3.89578 6.57242 3.86984 6.49136 3.88571 6.42767C3.89886 6.37501 4.145 6.10551 4.57755 5.6702C5.17768 5.06626 5.25863 4.97329 5.33948 4.79494C5.49327 4.45577 5.46061 4.13241 5.23903 3.80002C5.18288 3.71576 4.68405 3.19551 4.13054 2.64388C3.22682 1.74324 3.10469 1.63197 2.93344 1.55302C2.7238 1.45638 2.48652 1.42203 2.29843 1.46113ZM7.58918 3.0715C7.54857 3.28391 7.44152 4.13077 7.45372 4.14297C7.46147 4.15072 7.57304 4.17876 7.70165 4.20529C9.20553 4.51535 10.4069 5.68613 10.7674 7.19294C10.7977 7.31994 10.8265 7.42702 10.8313 7.43087C10.8449 7.4419 11.9399 7.25073 11.9561 7.23448C11.9743 7.21629 11.924 6.9676 11.8475 6.69796C11.3181 4.83003 9.74443 3.39662 7.82833 3.037L7.60384 2.99487L7.58918 3.0715Z" fill="white"/>
</svg>
